<?xml version="1.0" encoding="UTF-8"?><svg xmlns="http://www.w3.org/2000/svg" xmlns:xlink="http://www.w3.org/1999/xlink" fill-opacity="1" color-rendering="auto" color-interpolation="auto" text-rendering="auto" stroke="black" stroke-linecap="square" width="775" stroke-miterlimit="10" shape-rendering="auto" stroke-opacity="1" fill="black" stroke-dasharray="none" font-weight="normal" stroke-width="1" height="1013" font-family="'Dialog'" font-style="normal" stroke-linejoin="miter" font-size="12px" stroke-dashoffset="0" image-rendering="auto">
  <!--Generated by ySVG 2.6-->
  <defs id="genericDefs"/>
  <g>
    <defs id="defs1">
      <clipPath clipPathUnits="userSpaceOnUse" id="clipPath1">
        <path d="M0 0 L775 0 L775 1013 L0 1013 L0 0 Z"/>
      </clipPath>
      <clipPath clipPathUnits="userSpaceOnUse" id="clipPath2">
        <path d="M-118 404 L657 404 L657 1417 L-118 1417 L-118 404 Z"/>
      </clipPath>
    </defs>
    <g fill="white" text-rendering="geometricPrecision" shape-rendering="geometricPrecision" transform="translate(118,-404)" stroke="white">
      <rect x="-118" width="775" height="1013" y="404" clip-path="url(#clipPath2)" stroke="none"/>
    </g>
    <g fill="rgb(255,204,0)" text-rendering="geometricPrecision" shape-rendering="geometricPrecision" transform="matrix(1,0,0,1,118,-404)" stroke="rgb(255,204,0)">
      <rect x="194.5596" width="95.3809" height="30" y="419.25" clip-path="url(#clipPath2)" stroke="none"/>
    </g>
    <g text-rendering="geometricPrecision" stroke-miterlimit="1.45" shape-rendering="geometricPrecision" transform="matrix(1,0,0,1,118,-404)" stroke-linecap="butt">
      <rect fill="none" x="194.5596" width="95.3809" height="30" y="419.25" clip-path="url(#clipPath2)"/>
      <text x="201.5596" xml:space="preserve" y="438.9639" clip-path="url(#clipPath2)" font-family="sans-serif" stroke="none">bookdown start</text>
    </g>
    <g fill="rgb(255,204,0)" text-rendering="geometricPrecision" shape-rendering="geometricPrecision" transform="matrix(1,0,0,1,118,-404)" stroke="rgb(255,204,0)">
      <rect x="174.8809" width="134.7383" height="30" y="479.25" clip-path="url(#clipPath2)" stroke="none"/>
    </g>
    <g text-rendering="geometricPrecision" stroke-miterlimit="1.45" shape-rendering="geometricPrecision" transform="matrix(1,0,0,1,118,-404)" stroke-linecap="butt">
      <rect fill="none" x="174.8809" width="134.7383" height="30" y="479.25" clip-path="url(#clipPath2)"/>
      <text x="181.8809" xml:space="preserve" y="498.9639" clip-path="url(#clipPath2)" font-family="sans-serif" stroke="none">download R &amp; RStudio</text>
    </g>
    <g fill="rgb(255,204,0)" text-rendering="geometricPrecision" shape-rendering="geometricPrecision" transform="matrix(1,0,0,1,118,-404)" stroke="rgb(255,204,0)">
      <rect x="-26.2783" width="175.0566" height="30" y="552.25" clip-path="url(#clipPath2)" stroke="none"/>
    </g>
    <g text-rendering="geometricPrecision" stroke-miterlimit="1.45" shape-rendering="geometricPrecision" transform="matrix(1,0,0,1,118,-404)" stroke-linecap="butt">
      <rect fill="none" x="-26.2783" width="175.0566" height="30" y="552.25" clip-path="url(#clipPath2)"/>
      <text x="-19.2783" xml:space="preserve" y="571.9639" clip-path="url(#clipPath2)" font-family="sans-serif" stroke="none">RStudio: File -&gt; New Project...</text>
    </g>
    <g fill="rgb(255,204,0)" text-rendering="geometricPrecision" shape-rendering="geometricPrecision" transform="matrix(1,0,0,1,118,-404)" stroke="rgb(255,204,0)">
      <rect x="160.5342" width="163.4316" height="43.4023" y="545.5488" clip-path="url(#clipPath2)" stroke="none"/>
    </g>
    <g text-rendering="geometricPrecision" stroke-miterlimit="1.45" shape-rendering="geometricPrecision" transform="matrix(1,0,0,1,118,-404)" stroke-linecap="butt">
      <rect fill="none" x="160.5342" width="163.4316" height="43.4023" y="545.5488" clip-path="url(#clipPath2)"/>
      <text x="180.2285" xml:space="preserve" y="564.6133" clip-path="url(#clipPath2)" font-family="sans-serif" stroke="none">GitHub: New repository</text>
      <text x="167.5342" xml:space="preserve" y="579.3145" clip-path="url(#clipPath2)" font-family="sans-serif" stroke="none">w/o anything even .gitignore</text>
    </g>
    <g fill="rgb(255,204,0)" text-rendering="geometricPrecision" shape-rendering="geometricPrecision" transform="matrix(1,0,0,1,118,-404)" stroke="rgb(255,204,0)">
      <rect x="348.876" width="172.7422" height="43.4023" y="545.5488" clip-path="url(#clipPath2)" stroke="none"/>
    </g>
    <g text-rendering="geometricPrecision" stroke-miterlimit="1.45" shape-rendering="geometricPrecision" transform="matrix(1,0,0,1,118,-404)" stroke-linecap="butt">
      <rect fill="none" x="348.876" width="172.7422" height="43.4023" y="545.5488" clip-path="url(#clipPath2)"/>
      <text x="366.8857" xml:space="preserve" y="564.6133" clip-path="url(#clipPath2)" font-family="sans-serif" stroke="none">GitHub: Use this template</text>
      <text x="355.876" xml:space="preserve" y="579.3145" clip-path="url(#clipPath2)" font-family="sans-serif" stroke="none">from jtr13/bookdown-template</text>
    </g>
    <g fill="rgb(255,204,0)" text-rendering="geometricPrecision" shape-rendering="geometricPrecision" transform="matrix(1,0,0,1,118,-404)" stroke="rgb(255,204,0)">
      <rect x="-57.1709" width="92.6797" height="30" y="646.25" clip-path="url(#clipPath2)" stroke="none"/>
    </g>
    <g text-rendering="geometricPrecision" stroke-miterlimit="1.45" shape-rendering="geometricPrecision" transform="matrix(1,0,0,1,118,-404)" stroke-linecap="butt">
      <rect fill="none" x="-57.1709" width="92.6797" height="30" y="646.25" clip-path="url(#clipPath2)"/>
      <text x="-50.1709" xml:space="preserve" y="665.9639" clip-path="url(#clipPath2)" font-family="sans-serif" stroke="none"> New Directory</text>
    </g>
    <g fill="rgb(255,204,0)" text-rendering="geometricPrecision" shape-rendering="geometricPrecision" transform="matrix(1,0,0,1,118,-404)" stroke="rgb(255,204,0)">
      <rect x="65.5088" width="96.7051" height="30" y="646.25" clip-path="url(#clipPath2)" stroke="none"/>
    </g>
    <g text-rendering="geometricPrecision" stroke-miterlimit="1.45" shape-rendering="geometricPrecision" transform="matrix(1,0,0,1,118,-404)" stroke-linecap="butt">
      <rect fill="none" x="65.5088" width="96.7051" height="30" y="646.25" clip-path="url(#clipPath2)"/>
      <text x="72.5088" xml:space="preserve" y="665.9639" clip-path="url(#clipPath2)" font-family="sans-serif" stroke="none">Version Control</text>
    </g>
    <g fill="rgb(255,204,0)" text-rendering="geometricPrecision" shape-rendering="geometricPrecision" transform="matrix(1,0,0,1,118,-404)" stroke="rgb(255,204,0)">
      <rect x="-57.1709" width="170.7676" height="30" y="730.25" clip-path="url(#clipPath2)" stroke="none"/>
    </g>
    <g text-rendering="geometricPrecision" stroke-miterlimit="1.45" shape-rendering="geometricPrecision" transform="matrix(1,0,0,1,118,-404)" stroke-linecap="butt">
      <rect fill="none" x="-57.1709" width="170.7676" height="30" y="730.25" clip-path="url(#clipPath2)"/>
      <text x="-50.1709" xml:space="preserve" y="749.9639" clip-path="url(#clipPath2)" font-family="sans-serif" stroke="none">Book project using bookdown</text>
    </g>
    <g fill="rgb(255,204,0)" text-rendering="geometricPrecision" shape-rendering="geometricPrecision" transform="matrix(1,0,0,1,118,-404)" stroke="rgb(255,204,0)">
      <rect x="143.5967" width="29.334" height="30" y="730.25" clip-path="url(#clipPath2)" stroke="none"/>
    </g>
    <g text-rendering="geometricPrecision" stroke-miterlimit="1.45" shape-rendering="geometricPrecision" transform="matrix(1,0,0,1,118,-404)" stroke-linecap="butt">
      <rect fill="none" x="143.5967" width="29.334" height="30" y="730.25" clip-path="url(#clipPath2)"/>
      <text x="150.5967" xml:space="preserve" y="749.9639" clip-path="url(#clipPath2)" font-family="sans-serif" stroke="none">Git</text>
    </g>
    <g fill="rgb(255,204,0)" text-rendering="geometricPrecision" shape-rendering="geometricPrecision" transform="matrix(1,0,0,1,118,-404)" stroke="rgb(255,204,0)">
      <rect x="192.9014" width="98.6973" height="30" y="646.25" clip-path="url(#clipPath2)" stroke="none"/>
    </g>
    <g text-rendering="geometricPrecision" stroke-miterlimit="1.45" shape-rendering="geometricPrecision" transform="matrix(1,0,0,1,118,-404)" stroke-linecap="butt">
      <rect fill="none" x="192.9014" width="98.6973" height="30" y="646.25" clip-path="url(#clipPath2)"/>
      <text x="199.9014" xml:space="preserve" y="665.9639" clip-path="url(#clipPath2)" font-family="sans-serif" stroke="none">Repository URL</text>
    </g>
    <g fill="rgb(255,204,0)" text-rendering="geometricPrecision" shape-rendering="geometricPrecision" transform="matrix(1,0,0,1,118,-404)" stroke="rgb(255,204,0)">
      <rect x="-48.3145" width="153.0547" height="30" y="814.25" clip-path="url(#clipPath2)" stroke="none"/>
    </g>
    <g text-rendering="geometricPrecision" stroke-miterlimit="1.45" shape-rendering="geometricPrecision" transform="matrix(1,0,0,1,118,-404)" stroke-linecap="butt">
      <rect fill="none" x="-48.3145" width="153.0547" height="30" y="814.25" clip-path="url(#clipPath2)"/>
      <text x="-41.3145" xml:space="preserve" y="833.9639" clip-path="url(#clipPath2)" font-family="sans-serif" stroke="none">Tools -&gt; Project Options...</text>
    </g>
    <g fill="rgb(255,204,0)" text-rendering="geometricPrecision" shape-rendering="geometricPrecision" transform="matrix(1,0,0,1,118,-404)" stroke="rgb(255,204,0)">
      <rect x="-102.6572" width="261.7402" height="30" y="883.25" clip-path="url(#clipPath2)" stroke="none"/>
    </g>
    <g text-rendering="geometricPrecision" stroke-miterlimit="1.45" shape-rendering="geometricPrecision" transform="matrix(1,0,0,1,118,-404)" stroke-linecap="butt">
      <rect fill="none" x="-102.6572" width="261.7402" height="30" y="883.25" clip-path="url(#clipPath2)"/>
      <text x="-95.6572" xml:space="preserve" y="902.9639" clip-path="url(#clipPath2)" font-family="sans-serif" stroke="none">Git/SVN: Version control system: (None) -&gt; Git</text>
    </g>
    <g fill="rgb(255,204,0)" text-rendering="geometricPrecision" shape-rendering="geometricPrecision" transform="matrix(1,0,0,1,118,-404)" stroke="rgb(255,204,0)">
      <rect x="20.8135" width="278.7852" height="30" y="943.25" clip-path="url(#clipPath2)" stroke="none"/>
    </g>
    <g text-rendering="geometricPrecision" stroke-miterlimit="1.45" shape-rendering="geometricPrecision" transform="matrix(1,0,0,1,118,-404)" stroke-linecap="butt">
      <rect fill="none" x="20.8135" width="278.7852" height="30" y="943.25" clip-path="url(#clipPath2)"/>
      <text x="27.8135" xml:space="preserve" y="962.9639" clip-path="url(#clipPath2)" font-family="sans-serif" stroke="none">Terminal: git remote add origin &lt;Repository URL&gt;</text>
    </g>
    <g fill="rgb(255,204,0)" text-rendering="geometricPrecision" shape-rendering="geometricPrecision" transform="matrix(1,0,0,1,118,-404)" stroke="rgb(255,204,0)">
      <rect x="315.1826" width="96.7227" height="30" y="1003.25" clip-path="url(#clipPath2)" stroke="none"/>
    </g>
    <g text-rendering="geometricPrecision" stroke-miterlimit="1.45" shape-rendering="geometricPrecision" transform="matrix(1,0,0,1,118,-404)" stroke-linecap="butt">
      <rect fill="none" x="315.1826" width="96.7227" height="30" y="1003.25" clip-path="url(#clipPath2)"/>
      <text x="322.1826" xml:space="preserve" y="1022.9639" clip-path="url(#clipPath2)" font-family="sans-serif" stroke="none">git add or stage</text>
    </g>
    <g fill="rgb(255,204,0)" text-rendering="geometricPrecision" shape-rendering="geometricPrecision" transform="matrix(1,0,0,1,118,-404)" stroke="rgb(255,204,0)">
      <rect x="329.207" width="68.6738" height="30" y="1056.25" clip-path="url(#clipPath2)" stroke="none"/>
    </g>
    <g text-rendering="geometricPrecision" stroke-miterlimit="1.45" shape-rendering="geometricPrecision" transform="matrix(1,0,0,1,118,-404)" stroke-linecap="butt">
      <rect fill="none" x="329.207" width="68.6738" height="30" y="1056.25" clip-path="url(#clipPath2)"/>
      <text x="336.207" xml:space="preserve" y="1075.9639" clip-path="url(#clipPath2)" font-family="sans-serif" stroke="none">git commit</text>
    </g>
    <g fill="rgb(255,204,0)" text-rendering="geometricPrecision" shape-rendering="geometricPrecision" transform="matrix(1,0,0,1,118,-404)" stroke="rgb(255,204,0)">
      <rect x="419.9238" width="166.666" height="30" y="1056.25" clip-path="url(#clipPath2)" stroke="none"/>
    </g>
    <g text-rendering="geometricPrecision" stroke-miterlimit="1.45" shape-rendering="geometricPrecision" transform="matrix(1,0,0,1,118,-404)" stroke-linecap="butt">
      <rect fill="none" x="419.9238" width="166.666" height="30" y="1056.25" clip-path="url(#clipPath2)"/>
      <text x="426.9238" xml:space="preserve" y="1075.9639" clip-path="url(#clipPath2)" font-family="sans-serif" stroke="none">install.packages('bookdown')</text>
    </g>
    <g fill="rgb(255,204,0)" text-rendering="geometricPrecision" shape-rendering="geometricPrecision" transform="matrix(1,0,0,1,118,-404)" stroke="rgb(255,204,0)">
      <rect x="411.2666" width="183.9805" height="30" y="1176.25" clip-path="url(#clipPath2)" stroke="none"/>
    </g>
    <g text-rendering="geometricPrecision" stroke-miterlimit="1.45" shape-rendering="geometricPrecision" transform="matrix(1,0,0,1,118,-404)" stroke-linecap="butt">
      <rect fill="none" x="411.2666" width="183.9805" height="30" y="1176.25" clip-path="url(#clipPath2)"/>
      <text x="418.2666" xml:space="preserve" y="1195.9639" clip-path="url(#clipPath2)" font-family="sans-serif" stroke="none">browseURL('_book/_main.html')</text>
    </g>
    <g fill="rgb(255,204,0)" text-rendering="geometricPrecision" shape-rendering="geometricPrecision" transform="matrix(1,0,0,1,118,-404)" stroke="rgb(255,204,0)">
      <rect x="222.5811" width="52.0273" height="30" y="1109.25" clip-path="url(#clipPath2)" stroke="none"/>
    </g>
    <g text-rendering="geometricPrecision" stroke-miterlimit="1.45" shape-rendering="geometricPrecision" transform="matrix(1,0,0,1,118,-404)" stroke-linecap="butt">
      <rect fill="none" x="222.5811" width="52.0273" height="30" y="1109.25" clip-path="url(#clipPath2)"/>
      <text x="229.5811" xml:space="preserve" y="1128.9639" clip-path="url(#clipPath2)" font-family="sans-serif" stroke="none">publish</text>
    </g>
    <g fill="rgb(255,204,0)" text-rendering="geometricPrecision" shape-rendering="geometricPrecision" transform="matrix(1,0,0,1,118,-404)" stroke="rgb(255,204,0)">
      <rect x="208.2393" width="88.707" height="30" y="1176.25" clip-path="url(#clipPath2)" stroke="none"/>
    </g>
    <g text-rendering="geometricPrecision" stroke-miterlimit="1.45" shape-rendering="geometricPrecision" transform="matrix(1,0,0,1,118,-404)" stroke-linecap="butt">
      <rect fill="none" x="208.2393" width="88.707" height="30" y="1176.25" clip-path="url(#clipPath2)"/>
      <text x="215.2393" xml:space="preserve" y="1195.9639" clip-path="url(#clipPath2)" font-family="sans-serif" stroke="none">GitHub Pages</text>
    </g>
    <g fill="rgb(255,204,0)" text-rendering="geometricPrecision" shape-rendering="geometricPrecision" transform="matrix(1,0,0,1,118,-404)" stroke="rgb(255,204,0)">
      <rect x="326.9463" width="47.3398" height="30" y="1176.25" clip-path="url(#clipPath2)" stroke="none"/>
    </g>
    <g text-rendering="geometricPrecision" stroke-miterlimit="1.45" shape-rendering="geometricPrecision" transform="matrix(1,0,0,1,118,-404)" stroke-linecap="butt">
      <rect fill="none" x="326.9463" width="47.3398" height="30" y="1176.25" clip-path="url(#clipPath2)"/>
      <text x="333.9463" xml:space="preserve" y="1195.9639" clip-path="url(#clipPath2)" font-family="sans-serif" stroke="none">Netlify</text>
    </g>
    <g fill="rgb(255,204,0)" text-rendering="geometricPrecision" shape-rendering="geometricPrecision" transform="matrix(1,0,0,1,118,-404)" stroke="rgb(255,204,0)">
      <rect x="264.5225" width="147.3828" height="30" y="784.25" clip-path="url(#clipPath2)" stroke="none"/>
    </g>
    <g text-rendering="geometricPrecision" stroke-miterlimit="1.45" shape-rendering="geometricPrecision" transform="matrix(1,0,0,1,118,-404)" stroke-linecap="butt">
      <rect fill="none" x="264.5225" width="147.3828" height="30" y="784.25" clip-path="url(#clipPath2)"/>
      <text x="271.5225" xml:space="preserve" y="803.9639" clip-path="url(#clipPath2)" font-family="sans-serif" stroke="none">A Minimal Book Example</text>
    </g>
    <g fill="rgb(255,204,0)" text-rendering="geometricPrecision" shape-rendering="geometricPrecision" transform="matrix(1,0,0,1,118,-404)" stroke="rgb(255,204,0)">
      <rect x="88.8525" width="89.3867" height="30" y="1176.25" clip-path="url(#clipPath2)" stroke="none"/>
    </g>
    <g text-rendering="geometricPrecision" stroke-miterlimit="1.45" shape-rendering="geometricPrecision" transform="matrix(1,0,0,1,118,-404)" stroke-linecap="butt">
      <rect fill="none" x="88.8525" width="89.3867" height="30" y="1176.25" clip-path="url(#clipPath2)"/>
      <text x="95.8525" xml:space="preserve" y="1195.9639" clip-path="url(#clipPath2)" font-family="sans-serif" stroke="none">bookdown.org</text>
    </g>
    <g fill="rgb(255,204,0)" text-rendering="geometricPrecision" shape-rendering="geometricPrecision" transform="matrix(1,0,0,1,118,-404)" stroke="rgb(255,204,0)">
      <rect x="4.8174" width="173.4219" height="30" y="1229.25" clip-path="url(#clipPath2)" stroke="none"/>
    </g>
    <g text-rendering="geometricPrecision" stroke-miterlimit="1.45" shape-rendering="geometricPrecision" transform="matrix(1,0,0,1,118,-404)" stroke-linecap="butt">
      <rect fill="none" x="4.8174" width="173.4219" height="30" y="1229.25" clip-path="url(#clipPath2)"/>
      <text x="11.8174" xml:space="preserve" y="1248.9639" clip-path="url(#clipPath2)" font-family="sans-serif" stroke="none">Posit Connect not Posit Cloud</text>
    </g>
    <g fill="rgb(255,204,0)" text-rendering="geometricPrecision" shape-rendering="geometricPrecision" transform="matrix(1,0,0,1,118,-404)" stroke="rgb(255,204,0)">
      <rect x="187.5479" width="135.4004" height="30" y="1229.25" clip-path="url(#clipPath2)" stroke="none"/>
    </g>
    <g text-rendering="geometricPrecision" stroke-miterlimit="1.45" shape-rendering="geometricPrecision" transform="matrix(1,0,0,1,118,-404)" stroke-linecap="butt">
      <rect fill="none" x="187.5479" width="135.4004" height="30" y="1229.25" clip-path="url(#clipPath2)"/>
      <text x="194.5479" xml:space="preserve" y="1248.9639" clip-path="url(#clipPath2)" font-family="sans-serif" stroke="none">&lt;Repository&gt;: Settings</text>
    </g>
    <g fill="rgb(255,204,0)" text-rendering="geometricPrecision" shape-rendering="geometricPrecision" transform="matrix(1,0,0,1,118,-404)" stroke="rgb(255,204,0)">
      <rect x="-67.9189" width="55.3555" height="30" y="1109.25" clip-path="url(#clipPath2)" stroke="none"/>
    </g>
    <g text-rendering="geometricPrecision" stroke-miterlimit="1.45" shape-rendering="geometricPrecision" transform="matrix(1,0,0,1,118,-404)" stroke-linecap="butt">
      <rect fill="none" x="-67.9189" width="55.3555" height="30" y="1109.25" clip-path="url(#clipPath2)"/>
      <text x="-60.9189" xml:space="preserve" y="1128.9639" clip-path="url(#clipPath2)" font-family="sans-serif" stroke="none">posit.co</text>
    </g>
    <g fill="rgb(255,204,0)" text-rendering="geometricPrecision" shape-rendering="geometricPrecision" transform="matrix(1,0,0,1,118,-404)" stroke="rgb(255,204,0)">
      <rect x="-67.9189" width="52.6953" height="30" y="1176.25" clip-path="url(#clipPath2)" stroke="none"/>
    </g>
    <g text-rendering="geometricPrecision" stroke-miterlimit="1.45" shape-rendering="geometricPrecision" transform="matrix(1,0,0,1,118,-404)" stroke-linecap="butt">
      <rect fill="none" x="-67.9189" width="52.6953" height="30" y="1176.25" clip-path="url(#clipPath2)"/>
      <text x="-60.9189" xml:space="preserve" y="1195.9639" clip-path="url(#clipPath2)" font-family="sans-serif" stroke="none">sign up</text>
    </g>
    <g fill="rgb(255,204,0)" text-rendering="geometricPrecision" shape-rendering="geometricPrecision" transform="matrix(1,0,0,1,118,-404)" stroke="rgb(255,204,0)">
      <rect x="27.6094" width="129.3945" height="30" y="1296.25" clip-path="url(#clipPath2)" stroke="none"/>
    </g>
    <g text-rendering="geometricPrecision" stroke-miterlimit="1.45" shape-rendering="geometricPrecision" transform="matrix(1,0,0,1,118,-404)" stroke-linecap="butt">
      <rect fill="none" x="27.6094" width="129.3945" height="30" y="1296.25" clip-path="url(#clipPath2)"/>
      <text x="34.6094" xml:space="preserve" y="1315.9639" clip-path="url(#clipPath2)" font-family="sans-serif" stroke="none">server: bookdown.org</text>
    </g>
    <g fill="rgb(255,204,0)" text-rendering="geometricPrecision" shape-rendering="geometricPrecision" transform="matrix(1,0,0,1,118,-404)" stroke="rgb(255,204,0)">
      <rect x="-4.708" width="56.0293" height="30" y="1371.25" clip-path="url(#clipPath2)" stroke="none"/>
    </g>
    <g text-rendering="geometricPrecision" stroke-miterlimit="1.45" shape-rendering="geometricPrecision" transform="matrix(1,0,0,1,118,-404)" stroke-linecap="butt">
      <rect fill="none" x="-4.708" width="56.0293" height="30" y="1371.25" clip-path="url(#clipPath2)"/>
      <text x="2.292" xml:space="preserve" y="1390.9639" clip-path="url(#clipPath2)" font-family="sans-serif" stroke="none">connect</text>
    </g>
    <g fill="rgb(255,204,0)" text-rendering="geometricPrecision" shape-rendering="geometricPrecision" transform="matrix(1,0,0,1,118,-404)" stroke="rgb(255,204,0)">
      <rect x="178.2393" width="455.3984" height="30" y="1296.25" clip-path="url(#clipPath2)" stroke="none"/>
    </g>
    <g text-rendering="geometricPrecision" stroke-miterlimit="1.45" shape-rendering="geometricPrecision" transform="matrix(1,0,0,1,118,-404)" stroke-linecap="butt">
      <rect fill="none" x="178.2393" width="455.3984" height="30" y="1296.25" clip-path="url(#clipPath2)"/>
      <text x="185.2393" xml:space="preserve" y="1315.9639" clip-path="url(#clipPath2)" font-family="sans-serif" stroke="none">rmarkdown::render_site(output_format = 'bookdown::pdf_book',encoding = 'UTF-8')</text>
    </g>
    <g fill="rgb(255,204,0)" text-rendering="geometricPrecision" shape-rendering="geometricPrecision" transform="matrix(1,0,0,1,118,-404)" stroke="rgb(255,204,0)">
      <rect x="436.4834" width="97.3789" height="30" y="704" clip-path="url(#clipPath2)" stroke="none"/>
    </g>
    <g text-rendering="geometricPrecision" stroke-miterlimit="1.45" shape-rendering="geometricPrecision" transform="matrix(1,0,0,1,118,-404)" stroke-linecap="butt">
      <rect fill="none" x="436.4834" width="97.3789" height="30" y="704" clip-path="url(#clipPath2)"/>
      <text x="443.4834" xml:space="preserve" y="723.7139" clip-path="url(#clipPath2)" font-family="sans-serif" stroke="none">_bookdown.yml</text>
    </g>
    <g fill="rgb(255,204,0)" text-rendering="geometricPrecision" shape-rendering="geometricPrecision" transform="matrix(1,0,0,1,118,-404)" stroke="rgb(255,204,0)">
      <rect x="436.4834" width="76.0332" height="30" y="748" clip-path="url(#clipPath2)" stroke="none"/>
    </g>
    <g text-rendering="geometricPrecision" stroke-miterlimit="1.45" shape-rendering="geometricPrecision" transform="matrix(1,0,0,1,118,-404)" stroke-linecap="butt">
      <rect fill="none" x="436.4834" width="76.0332" height="30" y="748" clip-path="url(#clipPath2)"/>
      <text x="443.4834" xml:space="preserve" y="767.7139" clip-path="url(#clipPath2)" font-family="sans-serif" stroke="none">_output.yml</text>
    </g>
    <g fill="rgb(255,204,0)" text-rendering="geometricPrecision" shape-rendering="geometricPrecision" transform="matrix(1,0,0,1,118,-404)" stroke="rgb(255,204,0)">
      <rect x="438.8213" width="71.3574" height="30" y="792.1465" clip-path="url(#clipPath2)" stroke="none"/>
    </g>
    <g text-rendering="geometricPrecision" stroke-miterlimit="1.45" shape-rendering="geometricPrecision" transform="matrix(1,0,0,1,118,-404)" stroke-linecap="butt">
      <rect fill="none" x="438.8213" width="71.3574" height="30" y="792.1465" clip-path="url(#clipPath2)"/>
      <text x="445.8213" xml:space="preserve" y="811.8604" clip-path="url(#clipPath2)" font-family="sans-serif" stroke="none">index.Rmd</text>
    </g>
    <g fill="rgb(255,204,0)" text-rendering="geometricPrecision" shape-rendering="geometricPrecision" transform="matrix(1,0,0,1,118,-404)" stroke="rgb(255,204,0)">
      <rect x="14.7764" width="154.0918" height="30" y="1109.25" clip-path="url(#clipPath2)" stroke="none"/>
    </g>
    <g text-rendering="geometricPrecision" stroke-miterlimit="1.45" shape-rendering="geometricPrecision" transform="matrix(1,0,0,1,118,-404)" stroke-linecap="butt">
      <rect fill="none" x="14.7764" width="154.0918" height="30" y="1109.25" clip-path="url(#clipPath2)"/>
      <text x="21.7764" xml:space="preserve" y="1128.9639" clip-path="url(#clipPath2)" font-family="sans-serif" stroke="none">bookdown::publish_book()</text>
    </g>
    <g fill="rgb(255,204,0)" text-rendering="geometricPrecision" shape-rendering="geometricPrecision" transform="matrix(1,0,0,1,118,-404)" stroke="rgb(255,204,0)">
      <rect x="578.8623" width="62.6914" height="102.207" y="667.8965" clip-path="url(#clipPath2)" stroke="none"/>
    </g>
    <g text-rendering="geometricPrecision" stroke-miterlimit="1.45" shape-rendering="geometricPrecision" transform="matrix(1,0,0,1,118,-404)" stroke-linecap="butt">
      <rect fill="none" x="578.8623" width="62.6914" height="102.207" y="667.8965" clip-path="url(#clipPath2)"/>
      <text x="604.2139" xml:space="preserve" y="686.9609" clip-path="url(#clipPath2)" font-family="sans-serif" stroke="none">---</text>
      <text x="585.8623" xml:space="preserve" y="701.6621" clip-path="url(#clipPath2)" font-family="sans-serif" stroke="none">&lt;YML...&gt;</text>
      <text x="604.2139" xml:space="preserve" y="716.3633" clip-path="url(#clipPath2)" font-family="sans-serif" stroke="none">---</text>
      <text x="608.541" xml:space="preserve" y="731.0645" clip-path="url(#clipPath2)" font-family="sans-serif" stroke="none"> </text>
      <text x="589.5244" xml:space="preserve" y="745.7656" clip-path="url(#clipPath2)" font-family="sans-serif" stroke="none"># About</text>
      <text x="605.207" xml:space="preserve" y="760.4668" clip-path="url(#clipPath2)" font-family="sans-serif" stroke="none">...</text>
    </g>
    <g fill="rgb(255,204,0)" text-rendering="geometricPrecision" shape-rendering="geometricPrecision" transform="matrix(1,0,0,1,118,-404)" stroke="rgb(255,204,0)">
      <rect x="285.2285" width="58.6895" height="30" y="836.75" clip-path="url(#clipPath2)" stroke="none"/>
    </g>
    <g text-rendering="geometricPrecision" stroke-miterlimit="1.45" shape-rendering="geometricPrecision" transform="matrix(1,0,0,1,118,-404)" stroke-linecap="butt">
      <rect fill="none" x="285.2285" width="58.6895" height="30" y="836.75" clip-path="url(#clipPath2)"/>
      <text x="292.2285" xml:space="preserve" y="856.4639" clip-path="url(#clipPath2)" font-family="sans-serif" stroke="none">for other</text>
    </g>
    <g fill="rgb(255,204,0)" text-rendering="geometricPrecision" shape-rendering="geometricPrecision" transform="matrix(1,0,0,1,118,-404)" stroke="rgb(255,204,0)">
      <rect x="388.5957" width="29.334" height="30" y="843.25" clip-path="url(#clipPath2)" stroke="none"/>
    </g>
    <g text-rendering="geometricPrecision" stroke-miterlimit="1.45" shape-rendering="geometricPrecision" transform="matrix(1,0,0,1,118,-404)" stroke-linecap="butt">
      <rect fill="none" x="388.5957" width="29.334" height="30" y="843.25" clip-path="url(#clipPath2)"/>
      <text x="395.5957" xml:space="preserve" y="862.9639" clip-path="url(#clipPath2)" font-family="sans-serif" stroke="none">Git</text>
    </g>
    <g fill="rgb(255,204,0)" text-rendering="geometricPrecision" shape-rendering="geometricPrecision" transform="matrix(1,0,0,1,118,-404)" stroke="rgb(255,204,0)">
      <rect x="441.9053" width="63.3652" height="30" y="843.25" clip-path="url(#clipPath2)" stroke="none"/>
    </g>
    <g text-rendering="geometricPrecision" stroke-miterlimit="1.45" shape-rendering="geometricPrecision" transform="matrix(1,0,0,1,118,-404)" stroke-linecap="butt">
      <rect fill="none" x="441.9053" width="63.3652" height="30" y="843.25" clip-path="url(#clipPath2)"/>
      <text x="448.9053" xml:space="preserve" y="862.9639" clip-path="url(#clipPath2)" font-family="sans-serif" stroke="none">.gitignore</text>
    </g>
    <g fill="rgb(255,204,0)" text-rendering="geometricPrecision" shape-rendering="geometricPrecision" transform="matrix(1,0,0,1,118,-404)" stroke="rgb(255,204,0)">
      <rect x="378.585" width="49.3555" height="30" y="937.7134" clip-path="url(#clipPath2)" stroke="none"/>
    </g>
    <g text-rendering="geometricPrecision" stroke-miterlimit="1.45" shape-rendering="geometricPrecision" transform="matrix(1,0,0,1,118,-404)" stroke-linecap="butt">
      <rect fill="none" x="378.585" width="49.3555" height="30" y="937.7134" clip-path="url(#clipPath2)"/>
      <text x="385.585" xml:space="preserve" y="957.4272" clip-path="url(#clipPath2)" font-family="sans-serif" stroke="none">LaTeX</text>
    </g>
    <g fill="rgb(255,204,0)" text-rendering="geometricPrecision" shape-rendering="geometricPrecision" transform="matrix(1,0,0,1,118,-404)" stroke="rgb(255,204,0)">
      <rect x="441.9053" width="83.3691" height="30" y="893.75" clip-path="url(#clipPath2)" stroke="none"/>
    </g>
    <g text-rendering="geometricPrecision" stroke-miterlimit="1.45" shape-rendering="geometricPrecision" transform="matrix(1,0,0,1,118,-404)" stroke-linecap="butt">
      <rect fill="none" x="441.9053" width="83.3691" height="30" y="893.75" clip-path="url(#clipPath2)"/>
      <text x="448.9053" xml:space="preserve" y="913.4639" clip-path="url(#clipPath2)" font-family="sans-serif" stroke="none">preamble.tex</text>
    </g>
    <g fill="rgb(255,204,0)" text-rendering="geometricPrecision" shape-rendering="geometricPrecision" transform="matrix(1,0,0,1,118,-404)" stroke="rgb(255,204,0)">
      <rect x="441.9053" width="59.3691" height="30" y="936.3477" clip-path="url(#clipPath2)" stroke="none"/>
    </g>
    <g text-rendering="geometricPrecision" stroke-miterlimit="1.45" shape-rendering="geometricPrecision" transform="matrix(1,0,0,1,118,-404)" stroke-linecap="butt">
      <rect fill="none" x="441.9053" width="59.3691" height="30" y="936.3477" clip-path="url(#clipPath2)"/>
      <text x="448.9053" xml:space="preserve" y="956.0615" clip-path="url(#clipPath2)" font-family="sans-serif" stroke="none">book.bib</text>
    </g>
    <g fill="rgb(255,204,0)" text-rendering="geometricPrecision" shape-rendering="geometricPrecision" transform="matrix(1,0,0,1,118,-404)" stroke="rgb(255,204,0)">
      <rect x="427.8809" width="150.752" height="30" y="1116.25" clip-path="url(#clipPath2)" stroke="none"/>
    </g>
    <g text-rendering="geometricPrecision" stroke-miterlimit="1.45" shape-rendering="geometricPrecision" transform="matrix(1,0,0,1,118,-404)" stroke-linecap="butt">
      <rect fill="none" x="427.8809" width="150.752" height="30" y="1116.25" clip-path="url(#clipPath2)"/>
      <text x="434.8809" xml:space="preserve" y="1135.9639" clip-path="url(#clipPath2)" font-family="sans-serif" stroke="none">bookdown::render_book()</text>
    </g>
    <g fill="rgb(255,204,0)" text-rendering="geometricPrecision" shape-rendering="geometricPrecision" transform="matrix(1,0,0,1,118,-404)" stroke="rgb(255,204,0)">
      <rect x="364.4482" width="169.4141" height="43.4023" y="639.5488" clip-path="url(#clipPath2)" stroke="none"/>
    </g>
    <g text-rendering="geometricPrecision" stroke-miterlimit="1.45" shape-rendering="geometricPrecision" transform="matrix(1,0,0,1,118,-404)" stroke-linecap="butt">
      <rect fill="none" x="364.4482" width="169.4141" height="43.4023" y="639.5488" clip-path="url(#clipPath2)"/>
      <text x="403.1475" xml:space="preserve" y="658.6133" clip-path="url(#clipPath2)" font-family="sans-serif" stroke="none">GitHub: 中文範例</text>
      <text x="371.4482" xml:space="preserve" y="673.3145" clip-path="url(#clipPath2)" font-family="sans-serif" stroke="none">from yihui/bookdown-chinese</text>
    </g>
    <g fill="rgb(255,204,0)" text-rendering="geometricPrecision" shape-rendering="geometricPrecision" transform="matrix(1,0,0,1,118,-404)" stroke="rgb(255,204,0)">
      <rect x="441.9053" width="84.7168" height="30" y="981.6768" clip-path="url(#clipPath2)" stroke="none"/>
    </g>
    <g text-rendering="geometricPrecision" stroke-miterlimit="1.45" shape-rendering="geometricPrecision" transform="matrix(1,0,0,1,118,-404)" stroke-linecap="butt">
      <rect fill="none" x="441.9053" width="84.7168" height="30" y="981.6768" clip-path="url(#clipPath2)"/>
      <text x="448.9053" xml:space="preserve" y="1001.3906" clip-path="url(#clipPath2)" font-family="sans-serif" stroke="none">packages.bib</text>
    </g>
    <g fill="rgb(255,204,0)" text-rendering="geometricPrecision" shape-rendering="geometricPrecision" transform="matrix(1,0,0,1,118,-404)" stroke="rgb(255,204,0)">
      <rect x="397.5879" width="211.3379" height="30" y="1229.25" clip-path="url(#clipPath2)" stroke="none"/>
    </g>
    <g text-rendering="geometricPrecision" stroke-miterlimit="1.45" shape-rendering="geometricPrecision" transform="matrix(1,0,0,1,118,-404)" stroke-linecap="butt">
      <rect fill="none" x="397.5879" width="211.3379" height="30" y="1229.25" clip-path="url(#clipPath2)"/>
      <text x="404.5879" xml:space="preserve" y="1248.9639" clip-path="url(#clipPath2)" font-family="sans-serif" stroke="none">browseURL('&lt;output dir&gt;/index.html')</text>
      <path fill="none" d="M242.25 449.25 L242.25 471.25" clip-path="url(#clipPath2)"/>
      <path d="M242.25 479.25 L247.25 467.25 L242.25 470.25 L237.25 467.25 Z" clip-path="url(#clipPath2)" stroke="none"/>
      <path fill="none" d="M205.0582 509.25 L105.8611 549.2577" clip-path="url(#clipPath2)"/>
      <path d="M98.4418 552.25 L111.4409 552.3986 L106.7885 548.8837 L107.7005 543.1245 Z" clip-path="url(#clipPath2)" stroke="none"/>
      <path fill="none" d="M242.25 509.25 L242.25 537.5488" clip-path="url(#clipPath2)"/>
      <path d="M242.25 545.5488 L247.25 533.5488 L242.25 536.5488 L237.25 533.5488 Z" clip-path="url(#clipPath2)" stroke="none"/>
      <path fill="none" d="M281.9069 509.25 L370.391 542.7186" clip-path="url(#clipPath2)"/>
      <path d="M377.8736 545.5488 L368.4186 536.6268 L369.4557 542.3648 L364.8807 545.98 Z" clip-path="url(#clipPath2)" stroke="none"/>
      <path fill="none" d="M49.7477 582.25 L5.5393 639.9016" clip-path="url(#clipPath2)"/>
      <path d="M0.6712 646.25 L11.9411 639.77 L6.1478 639.1081 L4.0056 633.6849 Z" clip-path="url(#clipPath2)" stroke="none"/>
      <path fill="none" d="M69.6454 582.25 L101.5587 639.269" clip-path="url(#clipPath2)"/>
      <path d="M105.4659 646.25 L103.9682 633.3365 L101.0703 638.3964 L95.242 638.2206 Z" clip-path="url(#clipPath2)" stroke="none"/>
      <path fill="none" d="M361.0508 588.9512 L169.8922 644.8619" clip-path="url(#clipPath2)"/>
      <path d="M162.2139 647.1077 L175.1349 648.5379 L170.852 644.5812 L172.3277 638.9401 Z" clip-path="url(#clipPath2)" stroke="none"/>
      <path fill="none" d="M212.6097 588.9512 L140.8038 641.524" clip-path="url(#clipPath2)"/>
      <path d="M134.3489 646.25 L146.9849 643.1954 L141.6106 640.9333 L141.0775 635.1268 Z" clip-path="url(#clipPath2)" stroke="none"/>
      <path fill="none" d="M-3.8589 676.25 L17.8687 722.9954" clip-path="url(#clipPath2)"/>
      <path d="M21.2408 730.25 L20.7169 717.2606 L17.4472 722.0886 L11.6486 721.4756 Z" clip-path="url(#clipPath2)" stroke="none"/>
      <path fill="none" d="M121.7903 676.25 L146.5961 723.1773" clip-path="url(#clipPath2)"/>
      <path d="M150.3347 730.25 L149.1472 717.3043 L146.1288 722.2932 L140.3064 721.9776 Z" clip-path="url(#clipPath2)" stroke="none"/>
      <path fill="none" d="M242.25 588.9512 L242.25 638.25" clip-path="url(#clipPath2)"/>
      <path d="M242.25 646.25 L247.25 634.25 L242.25 637.25 L237.25 634.25 Z" clip-path="url(#clipPath2)" stroke="none"/>
      <path fill="none" d="M172.9307 730.5806 L221.5961 681.9073" clip-path="url(#clipPath2)"/>
      <path d="M227.2525 676.25 L215.232 681.2007 L220.889 682.6144 L222.3037 688.2712 Z" clip-path="url(#clipPath2)" stroke="none"/>
      <path fill="none" d="M390.6911 588.9512 L280.2397 642.7469" clip-path="url(#clipPath2)"/>
      <path d="M273.0474 646.25 L286.0252 645.4906 L281.1387 642.3091 L281.6464 636.5002 Z" clip-path="url(#clipPath2)" stroke="none"/>
      <path fill="none" d="M28.2129 760.25 L28.2129 806.25" clip-path="url(#clipPath2)"/>
      <path d="M28.2129 814.25 L33.2129 802.25 L28.2129 805.25 L23.2129 802.25 Z" clip-path="url(#clipPath2)" stroke="none"/>
      <path fill="none" d="M28.2129 844.25 L28.2129 875.25" clip-path="url(#clipPath2)"/>
      <path d="M28.2129 883.25 L33.2129 871.25 L28.2129 874.25 L23.2129 871.25 Z" clip-path="url(#clipPath2)" stroke="none"/>
      <path fill="none" d="M238.1064 676.25 L166.4798 935.5388" clip-path="url(#clipPath2)"/>
      <path d="M164.3497 943.25 L172.3644 933.0146 L166.7461 934.5749 L162.7254 930.3519 Z" clip-path="url(#clipPath2)" stroke="none"/>
      <path fill="none" d="M61.2112 913.25 L119.9249 939.9395" clip-path="url(#clipPath2)"/>
      <path d="M127.2078 943.25 L118.3526 933.7324 L119.0145 939.5256 L114.2144 942.836 Z" clip-path="url(#clipPath2)" stroke="none"/>
      <path fill="none" d="M169.5428 760.25 L347.4569 996.856" clip-path="url(#clipPath2)"/>
      <path d="M352.2648 1003.25 L349.0492 990.654 L346.8559 996.0567 L341.0566 996.6639 Z" clip-path="url(#clipPath2)" stroke="none"/>
      <path fill="none" d="M211.0405 973.25 L307.5097 1001.7157" clip-path="url(#clipPath2)"/>
      <path d="M315.1826 1003.9797 L305.0882 995.7881 L306.5505 1001.4327 L302.2582 1005.3793 Z" clip-path="url(#clipPath2)" stroke="none"/>
      <path fill="none" d="M363.5439 1033.25 L363.5439 1048.25" clip-path="url(#clipPath2)"/>
      <path d="M363.5439 1056.25 L368.5439 1044.25 L363.5439 1047.25 L358.5439 1044.25 Z" clip-path="url(#clipPath2)" stroke="none"/>
      <path fill="none" d="M397.8809 1071.25 L411.9238 1071.25" clip-path="url(#clipPath2)"/>
      <path d="M419.9238 1071.25 L407.9238 1066.25 L410.9238 1071.25 L407.9238 1076.25 Z" clip-path="url(#clipPath2)" stroke="none"/>
      <path fill="none" d="M446.2429 1176.25 L282.3451 1133.1295" clip-path="url(#clipPath2)"/>
      <path d="M274.6084 1131.094 L284.9413 1138.9827 L283.3122 1133.3839 L287.4857 1129.3118 Z" clip-path="url(#clipPath2)" stroke="none"/>
      <path fill="none" d="M249.4898 1139.25 L251.2212 1168.2642" clip-path="url(#clipPath2)"/>
      <path d="M251.6977 1176.25 L255.974 1163.9735 L251.1616 1167.266 L245.9918 1164.5691 Z" clip-path="url(#clipPath2)" stroke="none"/>
      <path fill="none" d="M271.4354 1139.25 L321.0887 1171.8585" clip-path="url(#clipPath2)"/>
      <path d="M327.7756 1176.25 L320.4899 1165.4834 L320.2528 1171.3096 L315.0005 1173.8422 Z" clip-path="url(#clipPath2)" stroke="none"/>
      <path fill="none" d="M113.5967 760.1232 L256.6411 785.0406" clip-path="url(#clipPath2)"/>
      <path d="M264.5225 786.4135 L253.5585 779.4283 L255.656 784.869 L251.8424 789.28 Z" clip-path="url(#clipPath2)" stroke="none"/>
      <path fill="none" d="M222.8375 1139.25 L166.2162 1172.224" clip-path="url(#clipPath2)"/>
      <path d="M159.3031 1176.25 L172.1891 1174.5317 L167.0804 1171.7207 L167.1566 1165.8903 Z" clip-path="url(#clipPath2)" stroke="none"/>
      <path fill="none" d="M121.6541 1206.25 L108.39 1222.9811" clip-path="url(#clipPath2)"/>
      <path d="M103.4201 1229.25 L114.7931 1222.9528 L109.0113 1222.1974 L106.9569 1216.7404 Z" clip-path="url(#clipPath2)" stroke="none"/>
      <path fill="none" d="M253.3443 1206.25 L254.0963 1221.26" clip-path="url(#clipPath2)"/>
      <path d="M254.4966 1229.25 L258.8899 1217.0149 L254.0462 1220.2612 L248.9024 1217.5153 Z" clip-path="url(#clipPath2)" stroke="none"/>
      <path fill="none" d="M-40.539 1139.25 L-41.1147 1168.2516" clip-path="url(#clipPath2)"/>
      <path d="M-41.2735 1176.25 L-36.0363 1164.3516 L-41.0949 1167.2518 L-46.0344 1164.1531 Z" clip-path="url(#clipPath2)" stroke="none"/>
      <path fill="none" d="M91.7026 1259.25 L92.0395 1288.2505" clip-path="url(#clipPath2)"/>
      <path d="M92.1324 1296.25 L96.9927 1284.1927 L92.0278 1287.2506 L86.9933 1284.3088 Z" clip-path="url(#clipPath2)" stroke="none"/>
      <path fill="none" d="M-36.5807 1206.25 L15.7905 1363.6591" clip-path="url(#clipPath2)"/>
      <path d="M18.316 1371.25 L19.272 1358.2852 L15.4748 1362.7102 L9.7834 1361.4421 Z" clip-path="url(#clipPath2)" stroke="none"/>
      <path fill="none" d="M78.5066 1326.25 L42.5231 1365.3625" clip-path="url(#clipPath2)"/>
      <path d="M37.1066 1371.25 L48.911 1365.8041 L43.2002 1364.6266 L41.5517 1359.0336 Z" clip-path="url(#clipPath2)" stroke="none"/>
      <path fill="none" d="M365.6828 784.25 L457.7039 734" clip-path="url(#clipPath2)"/>
      <path fill="none" d="M394.6081 784.25 L436.4834 773.1118" clip-path="url(#clipPath2)"/>
      <path fill="none" d="M411.9053 803.5197 L438.8213 805.0792" clip-path="url(#clipPath2)"/>
      <path fill="none" d="M222.5811 1124.25 L176.8682 1124.25" clip-path="url(#clipPath2)"/>
      <path d="M168.8682 1124.25 L180.8682 1129.25 L177.8682 1124.25 L180.8682 1119.25 Z" clip-path="url(#clipPath2)" stroke="none"/>
      <path fill="none" d="M101.1634 1139.25 L119.9758 1169.4591" clip-path="url(#clipPath2)"/>
      <path d="M124.2048 1176.25 L122.1057 1163.4205 L119.4472 1168.6102 L113.6171 1168.7068 Z" clip-path="url(#clipPath2)" stroke="none"/>
      <path fill="none" d="M497.5936 792.1465 L578.8623 739.36" clip-path="url(#clipPath2)"/>
      <path fill="none" d="M331.4594 814.25 L321.3277 836.75" clip-path="url(#clipPath2)"/>
      <path fill="none" d="M343.918 853.9006 L388.5957 857.175" clip-path="url(#clipPath2)"/>
      <path fill="none" d="M417.9297 858.25 L441.9053 858.25" clip-path="url(#clipPath2)"/>
      <path fill="none" d="M327.7497 866.75 L390.0862 937.7134" clip-path="url(#clipPath2)"/>
      <path fill="none" d="M427.9404 939.2072 L456.1828 923.75" clip-path="url(#clipPath2)"/>
      <path fill="none" d="M427.9404 952.2201 L441.9053 951.941" clip-path="url(#clipPath2)"/>
      <path fill="none" d="M503.2568 1086.25 L503.2568 1108.25" clip-path="url(#clipPath2)"/>
      <path d="M503.2568 1116.25 L508.2568 1104.25 L503.2568 1107.25 L498.2568 1104.25 Z" clip-path="url(#clipPath2)" stroke="none"/>
      <path fill="none" d="M503.2568 1146.25 L503.2568 1168.25" clip-path="url(#clipPath2)"/>
      <path d="M503.2568 1176.25 L508.2568 1164.25 L503.2568 1167.25 L498.2568 1164.25 Z" clip-path="url(#clipPath2)" stroke="none"/>
      <path fill="none" d="M578.8623 707.7601 L517.2058 685.6514" clip-path="url(#clipPath2)"/>
      <path d="M509.6753 682.9512 L519.2834 691.7081 L518.1471 685.989 L522.6588 682.295 Z" clip-path="url(#clipPath2)" stroke="none"/>
      <path fill="none" d="M427.9404 966.1072 L456.6267 981.6768" clip-path="url(#clipPath2)"/>
      <path fill="none" d="M503.2568 1206.25 L503.2568 1221.25" clip-path="url(#clipPath2)"/>
      <path d="M503.2568 1229.25 L508.2568 1217.25 L503.2568 1220.25 L498.2568 1217.25 Z" clip-path="url(#clipPath2)" stroke="none"/>
      <path fill="none" d="M481.4691 1259.25 L434.3156 1291.7135" clip-path="url(#clipPath2)"/>
      <path d="M427.7262 1296.25 L440.4456 1293.5636 L435.1392 1291.1465 L434.7749 1285.3269 Z" clip-path="url(#clipPath2)" stroke="none"/>
    </g>
  </g>
</svg>
